<svg version="1.0" xmlns="http://www.w3.org/2000/svg" width="370.000000pt" height="100.000000pt" viewBox="0 0 1224.000000 408.000000" preserveAspectRatio="xMidYMid meet"><g transform="translate(0.000000,408.000000) scale(0.100000,-0.100000)" fill="#000000" stroke="none"><path d="M1707 3169 c-94 -22 -191 -99 -235 -186 -45 -89 -47 -120 -47 -673 0 -471 2 -532 18 -589 40 -147 127 -245 250 -283 88 -27 224 -29 307 -5 120 35 211 129 253 262 22 69 22 80 22 620 0 508 -1 554 -18 605 -42 124 -135 215 -252 245 -65 16 -235 19 -298 4z m190 -317 c30 -19 33 -70 32 -545 0 -519 -2 -539 -51 -567 -25 -13 -31 -13 -55 0 -54 30 -53 25 -50 571 2 483 3 508 21 528 19 21 78 29 103 13z"></path><path d="M2420 2300 l0 -870 171 0 170 0 -3 424 c-2 233 -1 422 1 420 3 -2 37 -169 78 -372 40 -202 78 -391 84 -419 l10 -53 170 0 169 0 0 870 0 870 -171 0 -170 0 3 -399 c2 -220 0 -397 -3 -395 -4 2 -9 20 -12 41 -3 21 -36 199 -74 396 l-67 357 -178 0 -178 0 0 -870z"></path><path d="M3430 2300 l0 -870 350 0 350 0 0 150 0 150 -180 0 -180 0 0 720 0 720 -170 0 -170 0 0 -870z"></path><path d="M4174 3153 c3 -10 10 -40 16 -68 6 -27 22 -95 35 -150 13 -55 69 -290 125 -523 l100 -423 0 -279 0 -280 160 0 160 0 0 275 0 276 49 207 c97 406 231 972 231 977 0 3 -76 5 -170 5 -168 0 -170 0 -175 -22 -12 -55 -85 -512 -85 -535 0 -65 -15 5 -59 269 l-46 283 -173 3 c-162 2 -173 1 -168 -15z"></path><path d="M5610 2300 l0 -870 260 0 c265 0 335 7 400 40 77 40 132 127 167 265 12 52 17 114 17 240 1 150 -2 179 -22 242 -26 83 -68 138 -126 164 -36 16 -37 17 -16 24 13 4 43 25 67 48 35 32 47 54 64 109 19 61 21 87 17 211 -7 210 -46 300 -152 352 -77 38 -145 45 -423 45 l-253 0 0 -870z m464 581 c15 -17 17 -39 14 -175 -4 -180 -6 -186 -87 -194 l-51 -5 0 197 0 196 53 0 c40 0 58 -5 71 -19z m-1 -661 c17 -14 29 -37 36 -71 14 -64 14 -282 0 -332 -13 -48 -57 -77 -116 -77 l-43 0 0 250 0 250 49 0 c33 0 56 -6 74 -20z"></path><path d="M6580 2300 l0 -870 360 0 360 0 0 170 0 170 -185 0 -185 0 0 200 0 200 165 0 165 0 0 160 0 160 -162 2 -163 3 -3 168 -2 167 170 0 170 0 0 170 0 170 -345 0 -345 0 0 -870z"></path><path d="M7526 3133 c-3 -21 -40 -391 -81 -823 -41 -432 -78 -806 -81 -832 l-6 -48 170 0 170 0 6 93 c4 50 9 113 12 140 l6 47 103 0 102 0 6 -57 c4 -32 9 -95 13 -140 l7 -83 163 0 c150 0 164 2 164 18 0 9 -34 370 -75 802 -41 432 -78 815 -82 853 l-6 67 -293 0 -292 0 -6 -37z m338 -698 c20 -236 36 -433 36 -437 0 -5 -34 -8 -75 -8 l-75 0 0 43 c0 23 14 220 30 437 16 217 30 399 30 405 0 5 3 5 9 0 4 -6 25 -203 45 -440z"></path><path d="M8380 2477 c0 -654 1 -698 19 -770 24 -93 41 -127 92 -182 129 -140 450 -149 600 -17 20 17 50 58 68 91 60 113 61 126 61 884 l0 687 -170 0 -170 0 0 -682 c0 -735 1 -718 -53 -748 -24 -13 -30 -13 -54 0 -59 33 -58 13 -61 753 l-3 677 -165 0 -164 0 0 -693z"></path><path d="M9290 3000 l0 -170 105 0 105 0 0 -700 0 -700 170 0 170 0 0 700 0 700 105 0 105 0 0 170 0 170 -380 0 -380 0 0 -170z"></path><path d="M10095 3148 c3 -13 34 -144 69 -293 36 -148 97 -404 135 -568 l71 -298 0 -279 0 -280 160 0 160 0 0 275 0 274 140 591 c77 324 140 592 140 595 0 3 -76 5 -170 5 -168 0 -170 0 -175 -22 -11 -49 -85 -514 -85 -537 0 -62 -16 10 -59 271 l-46 283 -173 3 -173 2 6 -22z"></path><path d="M6182 1069 c-60 -30 -112 -108 -169 -255 l-48 -124 -38 0 c-80 0 -137 44 -137 108 0 73 46 133 121 158 l44 14 -38 -4 c-52 -7 -124 -50 -148 -89 -25 -41 -24 -81 2 -124 24 -38 63 -61 132 -77 l47 -11 -26 -50 c-52 -99 -46 -94 -127 -93 -148 1 -237 -42 -237 -115 0 -43 26 -67 79 -74 61 -8 118 18 185 86 l58 59 57 -14 c198 -46 299 -140 263 -244 -9 -24 -8 -30 4 -30 8 0 19 12 24 26 15 37 -6 106 -46 152 -36 43 -138 100 -226 128 l-57 17 42 79 c40 77 44 80 95 97 150 51 272 197 272 327 0 33 -5 46 -22 58 -30 21 -55 20 -106 -5z m96 -62 c7 -86 -99 -232 -205 -283 -30 -14 -59 -24 -64 -22 -13 4 68 161 125 243 43 62 99 108 125 103 11 -2 17 -16 19 -41z m-443 -528 c11 -16 -77 -94 -128 -114 -80 -30 -155 2 -127 55 12 23 39 38 95 56 50 16 152 18 160 3z"></path><path d="M4806 848 c-18 -29 -64 -111 -101 -183 -38 -71 -79 -147 -93 -168 -13 -22 -21 -41 -18 -44 3 -3 13 9 23 26 10 18 23 40 30 49 10 14 11 12 4 -13 -18 -68 19 -105 91 -91 47 9 82 37 114 91 50 87 30 176 -40 174 l-31 -1 33 -9 c28 -8 32 -14 32 -45 0 -64 -88 -194 -131 -194 -72 0 -16 176 116 366 l65 94 -30 0 c-26 0 -35 -8 -64 -52z"></path><path d="M6870 765 c-18 -21 -5 -47 22 -43 31 4 40 58 10 58 -11 0 -25 -7 -32 -15z"></path><path d="M6607 763 c-2 -4 -10 -33 -17 -63 -15 -63 -59 -166 -91 -211 -11 -16 -19 -33 -16 -36 8 -8 61 79 87 142 22 54 32 61 64 49 22 -9 20 -23 -14 -90 -16 -32 -30 -69 -30 -81 0 -26 25 -53 50 -53 22 0 87 71 106 116 23 55 16 53 -16 -5 -36 -64 -58 -91 -77 -91 -24 0 -14 50 27 136 22 47 40 87 40 89 0 3 -25 5 -55 5 l-56 0 21 22 c24 26 23 71 -2 76 -9 2 -18 -1 -21 -5z"></path><path d="M7082 723 c-7 -3 -35 -49 -62 -104 -28 -54 -55 -99 -60 -99 -19 0 -23 -50 -5 -76 16 -25 21 -26 85 -22 56 3 74 8 96 28 27 26 79 118 70 127 -2 3 -16 -17 -30 -45 -23 -46 -76 -102 -97 -102 -14 0 -11 9 11 32 30 33 33 69 10 127 -11 28 -20 63 -20 76 0 28 27 58 46 51 8 -3 14 -1 14 4 0 10 -36 12 -58 3z m-15 -200 c-6 -89 -45 -104 -66 -26 -9 30 -6 44 22 100 l32 64 8 -43 c4 -24 6 -66 4 -95z m-52 -92 c-11 -10 -35 11 -35 31 l0 23 20 -25 c10 -14 17 -26 15 -29z"></path><path d="M7325 714 c-9 -9 -34 -52 -56 -95 -22 -44 -48 -88 -59 -99 -24 -24 -25 -48 -4 -79 15 -21 23 -23 85 -19 79 4 105 23 146 101 34 69 23 69 -18 0 -33 -55 -83 -103 -95 -90 -3 3 3 15 14 27 31 34 34 64 12 127 -11 32 -20 67 -20 79 0 28 28 57 46 50 8 -3 14 -1 14 4 0 16 -47 11 -65 -6z m-6 -179 c1 -94 -46 -120 -68 -38 -9 30 -6 44 22 100 l32 65 7 -39 c4 -21 7 -61 7 -88z m-55 -104 c-11 -12 -34 13 -34 36 l0 28 19 -30 c10 -16 17 -32 15 -34z"></path><path d="M6314 686 c-33 -15 -92 -83 -112 -129 -17 -40 -15 -103 4 -121 25 -25 49 -19 88 24 20 22 38 40 41 40 3 0 5 -13 5 -28 0 -31 16 -52 40 -52 29 0 120 117 120 153 0 7 -12 -8 -26 -33 -27 -47 -72 -100 -86 -100 -19 0 -5 70 26 127 25 47 30 63 20 67 -25 10 -42 -5 -83 -72 -51 -84 -60 -96 -90 -111 -19 -11 -25 -11 -32 0 -32 48 95 229 160 229 16 0 31 -6 34 -12 2 -7 8 -9 13 -5 14 13 -26 37 -60 37 -17 -1 -45 -7 -62 -14z"></path><path d="M7595 686 c-86 -37 -158 -202 -109 -250 25 -25 45 -19 91 29 l43 45 0 -33 c0 -36 15 -57 40 -57 22 0 73 56 99 107 29 59 26 67 -5 13 -27 -47 -72 -100 -86 -100 -18 0 -6 64 23 122 30 60 29 85 -4 73 -8 -4 -34 -37 -55 -74 -65 -107 -113 -146 -127 -100 -17 53 107 219 164 219 16 0 31 -6 34 -12 2 -7 8 -9 13 -5 14 13 -26 37 -60 37 -17 -1 -45 -7 -61 -14z"></path><path d="M5032 678 c-39 -50 -91 -200 -79 -231 3 -9 18 -19 32 -23 33 -8 68 15 108 72 17 24 32 42 34 40 6 -6 -48 -134 -60 -144 -7 -5 -43 -17 -81 -26 -113 -28 -176 -69 -189 -125 -14 -55 42 -83 123 -61 49 13 122 81 164 152 20 35 40 52 82 73 46 22 63 39 95 89 21 33 39 68 39 76 0 8 -12 -5 -27 -30 -14 -25 -38 -58 -52 -73 -26 -29 -79 -62 -87 -54 -6 6 65 207 87 245 l19 33 -27 -3 c-23 -2 -35 -15 -66 -73 -76 -141 -146 -209 -155 -150 -3 21 69 178 95 208 15 16 14 17 -14 17 -17 0 -35 -6 -41 -12z m18 -326 c0 -15 -100 -121 -135 -142 -45 -28 -99 -24 -103 7 -6 41 52 90 137 117 84 27 101 30 101 18z"></path><path d="M6834 671 c3 -4 -8 -43 -24 -85 -43 -112 -38 -166 15 -166 11 0 31 7 43 16 25 17 82 111 82 134 0 8 -14 -9 -30 -39 -38 -69 -58 -91 -82 -91 -34 0 -31 30 11 127 22 52 41 99 41 104 0 5 -14 9 -31 9 -16 0 -28 -4 -25 -9z"></path></g></svg>